<svg version="1.1" id="Layer_1" xmlns="http://www.w3.org/2000/svg" xmlns:xlink="http://www.w3.org/1999/xlink" x="0px" y="0px"
	 width="100%" viewBox="0 0 941 940" enable-background="new 0 0 941 940" xml:space="preserve">
<path fill="#000000" opacity="1.000000" stroke="none" 
	d="
M620.000000,941.000000 
	C413.333344,941.000000 207.166672,941.000000 1.000000,941.000000 
	C1.000000,627.666687 1.000000,314.333344 1.000000,1.000000 
	C314.666656,1.000000 628.333313,1.000000 942.000000,1.000000 
	C942.000000,314.333344 942.000000,627.666687 942.000000,941.000000 
	C834.833313,941.000000 727.666687,941.000000 620.000000,941.000000 
M603.860596,452.358276 
	C602.612732,451.220215 601.364868,450.082153 599.841858,448.329346 
	C597.597351,446.533478 595.352905,444.737610 593.014771,442.245148 
	C589.682983,439.553467 586.351135,436.861786 582.338623,433.805756 
	C577.464966,432.314606 573.909973,434.583313 570.656189,437.839203 
	C543.123535,465.389648 515.577271,492.926392 488.041595,520.473816 
	C482.524994,525.992798 482.155548,533.245300 487.430511,538.852783 
	C491.749573,543.444092 496.430511,547.695068 501.240540,552.691040 
	C503.810791,555.162354 506.381073,557.633667 509.225891,560.695801 
	C511.111969,562.476929 512.998047,564.258118 515.158508,566.639648 
	C516.756714,568.130920 518.354980,569.622192 520.202515,571.699219 
	C521.451477,572.832520 522.700378,573.965759 524.209656,575.702026 
	C526.124146,577.504944 528.038696,579.307800 530.206360,581.708008 
	C531.788452,583.176086 533.370483,584.644226 535.202942,586.710571 
	C536.785278,588.174255 538.367554,589.638000 540.201721,591.708801 
	C542.117004,593.508362 544.032288,595.307861 546.203674,597.721741 
	C590.929810,642.479614 635.655945,687.237488 681.240845,732.854736 
	C687.814331,724.027893 694.582520,715.827820 700.381958,706.991760 
	C720.824890,675.844482 726.986023,641.491882 720.799316,605.137512 
	C716.488770,579.807983 706.128113,556.535706 688.685913,537.587341 
	C669.990662,517.277954 649.702942,498.434540 629.861877,478.334534 
	C627.943054,476.540192 626.024292,474.745850 623.862915,472.342560 
	C622.278564,470.878052 620.694275,469.413574 618.854126,467.333435 
	C616.917847,465.520325 614.981567,463.707245 612.808655,461.294128 
	C611.240234,459.846619 609.671814,458.399078 607.861145,456.358246 
	C606.610046,455.221832 605.358948,454.085419 603.860596,452.358276 
M470.700439,622.802979 
	C472.148590,621.240356 473.596741,619.677795 475.659821,617.849792 
	C477.789764,615.605469 479.919708,613.361145 482.647644,610.851868 
	C484.113281,609.275391 485.578888,607.698975 487.656586,605.839966 
	C490.455231,602.924744 493.253876,600.009521 496.662018,596.824158 
	C498.789062,594.587524 500.916138,592.350891 503.668060,589.805725 
	C506.754700,586.472778 509.343292,582.922180 508.924957,577.275208 
	C506.786499,573.853271 505.177460,569.913757 502.421936,567.095032 
	C486.858276,551.173950 471.019104,535.522034 455.274689,519.777588 
	C444.465118,508.967987 433.682953,498.130798 422.837250,487.357574 
	C417.421661,481.978180 409.692932,481.121857 405.053406,485.509430 
	C401.204498,489.149353 397.648163,493.098633 393.365662,497.213196 
	C390.895142,499.773865 388.424591,502.334503 385.355621,505.196960 
	C382.871429,507.779053 380.387238,510.361145 377.308716,513.233704 
	C374.855560,515.783813 372.402374,518.333923 369.354614,521.165588 
	C367.867889,522.758362 366.381195,524.351196 364.291443,526.223633 
	C362.494080,528.465942 360.696716,530.708252 358.215363,533.019897 
	C356.129089,534.977112 354.042816,536.934326 351.349609,539.160522 
	C349.551514,541.069885 347.753418,542.979187 345.339996,545.165710 
	C300.481964,590.031494 255.623947,634.897217 210.359467,680.169495 
	C214.861588,684.194458 218.809570,688.180298 223.209641,691.581238 
	C246.180283,709.335754 272.317871,719.355347 301.130096,721.859741 
	C315.433655,723.102966 329.787781,721.836914 343.846283,718.582275 
	C368.934143,712.774231 391.164886,701.181274 409.771545,683.510376 
	C427.996460,666.202026 445.325287,647.950134 463.665771,629.851624 
	C465.811584,627.582764 467.957428,625.313843 470.700439,622.802979 
M558.672485,434.715729 
	C560.808899,432.489716 562.945312,430.263733 565.661194,427.678986 
	C568.119812,425.161072 570.578430,422.643188 573.639160,419.817657 
	C575.501038,417.964050 577.530457,416.246796 579.179871,414.220306 
	C581.003845,411.979401 582.479858,409.455261 584.799622,406.981232 
	C587.227905,404.999695 589.656189,403.018188 592.668823,400.799561 
	C593.790039,399.570343 594.911255,398.341125 596.649658,396.836426 
	C641.827637,351.642273 687.005676,306.448120 732.376953,261.060577 
	C731.358154,259.970520 730.685791,259.003754 729.791626,258.332458 
	C720.670105,251.484711 711.963623,243.945480 702.267944,238.030975 
	C683.964844,226.865906 663.741577,220.620255 642.356201,219.170425 
	C632.504211,218.502502 622.500305,219.307358 612.615051,220.080170 
	C598.066711,221.217545 584.335266,225.743271 571.005676,231.498718 
	C555.195862,238.325058 541.571289,248.500717 529.332153,260.342590 
	C511.873932,277.234192 494.998108,294.727783 477.269531,312.212341 
	C475.476593,314.129181 473.683624,316.046021 471.288544,318.213928 
	C469.508911,320.108704 467.729248,322.003479 465.331909,324.166718 
	C461.849518,328.099976 458.367096,332.033234 454.193665,336.004242 
	C451.445007,338.638641 448.696350,341.273010 445.343231,344.194275 
	C442.862488,346.785400 440.381744,349.376526 437.316315,352.346588 
	C436.266357,355.562195 435.216400,358.777832 434.039734,362.792786 
	C434.988556,365.318695 435.255676,368.519287 436.988098,370.269684 
	C464.753571,398.323181 492.681549,426.216217 520.638611,454.079498 
	C525.601868,459.026031 531.424194,459.652985 537.139587,455.285522 
	C541.836182,451.696594 545.811768,447.164185 550.698120,442.742706 
	C553.156311,440.172485 555.614502,437.602264 558.672485,434.715729 
M327.229492,478.717896 
	C330.137146,481.516144 333.044800,484.314362 336.229675,487.713409 
	C339.473206,490.848816 342.716736,493.984222 346.244141,497.713348 
	C349.154510,500.515198 352.064880,503.317047 355.392670,506.698975 
	C358.258606,507.410431 361.124573,508.121887 364.681335,508.687958 
	C367.553558,506.858398 370.748108,505.383301 373.230865,503.125458 
	C378.388153,498.435364 383.168091,493.330292 388.102936,488.395599 
	C410.192230,466.306946 432.293884,444.230621 454.362091,422.120941 
	C460.144470,416.327698 460.631073,409.591034 455.490173,404.068573 
	C451.879089,400.189453 447.907806,396.645599 443.777008,392.366150 
	C441.884979,390.894226 439.992920,389.422302 437.974609,387.266846 
	C435.005096,384.143738 432.035583,381.020630 428.752106,377.314117 
	C425.517395,374.168823 422.282715,371.023529 418.746948,367.294250 
	C416.183624,364.829987 413.620270,362.365753 410.763855,359.307220 
	C407.881622,356.521393 404.999359,353.735596 401.834045,350.360504 
	C400.259674,348.892792 398.685303,347.425079 396.820496,345.349213 
	C351.725891,300.280457 306.631287,255.211685 261.144684,209.751144 
	C260.208191,210.898941 259.336517,211.913055 258.526733,212.974411 
	C257.636688,214.140991 256.918365,215.457260 255.928543,216.526199 
	C241.336777,232.284454 231.651474,250.742493 225.360306,271.172760 
	C218.928345,292.060181 218.110321,313.486237 221.301514,334.716736 
	C225.460571,362.386322 237.204178,387.219147 256.440674,407.668671 
	C274.675690,427.053619 294.074097,445.344147 313.218781,464.716187 
	C315.131866,466.519043 317.044952,468.321899 319.226532,470.726898 
	C321.804810,473.189484 324.383087,475.652100 327.229492,478.717896 
z"/>
<path fill="#FF439E" opacity="1.000000" stroke="none" 
	d="
M463.047424,630.112305 
	C445.325287,647.950134 427.996460,666.202026 409.771545,683.510376 
	C391.164886,701.181274 368.934143,712.774231 343.846283,718.582275 
	C329.787781,721.836914 315.433655,723.102966 301.130096,721.859741 
	C272.317871,719.355347 246.180283,709.335754 223.209641,691.581238 
	C218.809570,688.180298 214.861588,684.194458 210.359467,680.169495 
	C255.623947,634.897217 300.481964,590.031494 345.863037,545.292603 
	C353.131622,550.203308 359.862274,555.008301 366.625366,559.767212 
	C396.992676,581.135376 427.393677,602.455994 457.690948,623.922974 
	C459.852875,625.454834 461.279114,628.024963 463.047424,630.112305 
z"/>
<path fill="#0084FF" opacity="1.000000" stroke="none" 
	d="
M477.873505,311.964233 
	C494.998108,294.727783 511.873932,277.234192 529.332153,260.342590 
	C541.571289,248.500717 555.195862,238.325058 571.005676,231.498718 
	C584.335266,225.743271 598.066711,221.217545 612.615051,220.080170 
	C622.500305,219.307358 632.504211,218.502502 642.356201,219.170425 
	C663.741577,220.620255 683.964844,226.865906 702.267944,238.030975 
	C711.963623,243.945480 720.670105,251.484711 729.791626,258.332458 
	C730.685791,259.003754 731.358154,259.970520 732.376953,261.060577 
	C687.005676,306.448120 641.827637,351.642273 596.321411,396.601959 
	C595.221313,395.183990 594.702148,393.656952 593.636475,392.872589 
	C586.557190,387.661774 579.387390,382.572266 572.197937,377.513123 
	C544.383606,357.940460 516.563232,338.376312 488.709290,318.860077 
	C485.206451,316.405762 481.490631,314.255432 477.873505,311.964233 
z"/>
<path fill="#49EE33" opacity="1.000000" stroke="none" 
	d="
M312.960876,464.115967 
	C294.074097,445.344147 274.675690,427.053619 256.440674,407.668671 
	C237.204178,387.219147 225.460571,362.386322 221.301514,334.716736 
	C218.110321,313.486237 218.928345,292.060181 225.360306,271.172760 
	C231.651474,250.742493 241.336777,232.284454 255.928543,216.526199 
	C256.918365,215.457260 257.636688,214.140991 258.526733,212.974411 
	C259.336517,211.913055 260.208191,210.898941 261.144684,209.751144 
	C306.631287,255.211685 351.725891,300.280457 396.668091,345.822784 
	C394.980957,348.247437 393.353455,350.133148 391.925934,352.159698 
	C378.635071,371.028198 365.404572,389.939240 352.104736,408.801392 
	C339.088257,427.261749 326.011292,445.679504 312.960876,464.115967 
z"/>
<path fill="#FFEA4B" opacity="1.000000" stroke="none" 
	d="
M630.110229,478.951294 
	C649.702942,498.434540 669.990662,517.277954 688.685913,537.587341 
	C706.128113,556.535706 716.488770,579.807983 720.799316,605.137512 
	C726.986023,641.491882 720.824890,675.844482 700.381958,706.991760 
	C694.582520,715.827820 687.814331,724.027893 681.240845,732.854736 
	C635.655945,687.237488 590.929810,642.479614 546.240967,597.113525 
	C547.016846,595.606201 547.817200,594.750549 548.484985,593.801575 
	C569.898376,563.371338 591.260315,532.904785 612.727600,502.512665 
	C618.357178,494.542572 624.307312,486.798920 630.110229,478.951294 
z"/>
<path fill="#998C2D" opacity="1.000000" stroke="none" 
	d="
M500.951050,552.096863 
	C496.430511,547.695068 491.749573,543.444092 487.430511,538.852783 
	C482.155548,533.245300 482.524994,525.992798 488.041595,520.473816 
	C515.577271,492.926392 543.123535,465.389648 570.656189,437.839203 
	C573.909973,434.583313 577.464966,432.314606 582.608276,434.319580 
	C572.231995,450.083435 561.606384,465.347778 550.933289,480.578888 
	C542.920044,492.014374 534.807617,503.380371 526.809021,514.825989 
	C518.147583,527.220154 509.566956,539.670837 500.951050,552.096863 
z"/>
<path fill="#004F9A" opacity="1.000000" stroke="none" 
	d="
M550.106873,443.049927 
	C545.811768,447.164185 541.836182,451.696594 537.139587,455.285522 
	C531.424194,459.652985 525.601868,459.026031 520.638611,454.079498 
	C492.681549,426.216217 464.753571,398.323181 436.988098,370.269684 
	C435.255676,368.519287 434.988556,365.318695 434.441650,362.457092 
	C436.292755,362.914307 437.832336,363.578186 439.176880,364.520386 
	C450.321716,372.330078 461.443939,380.172211 472.547455,388.040558 
	C498.408142,406.366364 524.254639,424.712219 550.106873,443.049927 
z"/>
<path fill="#2A891D" opacity="1.000000" stroke="none" 
	d="
M444.097351,392.952026 
	C447.907806,396.645599 451.879089,400.189453 455.490173,404.068573 
	C460.631073,409.591034 460.144470,416.327698 454.362091,422.120941 
	C432.293884,444.230621 410.192230,466.306946 388.102936,488.395599 
	C383.168091,493.330292 378.388153,498.435364 373.230865,503.125458 
	C370.748108,505.383301 367.553558,506.858398 364.341431,508.384888 
	C365.207458,505.402710 366.022186,502.449371 367.678864,500.086304 
	C387.723541,471.493988 407.853241,442.960999 428.055969,414.480011 
	C433.232178,407.182770 438.741241,400.121643 444.097351,392.952026 
z"/>
<path fill="#99285F" opacity="1.000000" stroke="none" 
	d="
M393.962189,496.910858 
	C397.648163,493.098633 401.204498,489.149353 405.053406,485.509430 
	C409.692932,481.121857 417.421661,481.978180 422.837250,487.357574 
	C433.682953,498.130798 444.465118,508.967987 455.274689,519.777588 
	C471.019104,535.522034 486.858276,551.173950 502.421936,567.095032 
	C505.177460,569.913757 506.786499,573.853271 508.535767,577.579224 
	C494.466339,568.455383 480.748444,559.081604 467.115082,549.586426 
	C448.695435,536.757812 430.284668,523.914856 411.989441,510.910095 
	C405.793854,506.506104 399.960876,501.591888 393.962189,496.910858 
z"/>
<path fill="#0064C3" opacity="1.000000" stroke="none" 
	d="
M445.947693,343.907410 
	C448.696350,341.273010 451.445007,338.638641 454.911560,336.004517 
	C456.804169,336.549866 458.092407,336.932709 459.136841,337.663788 
	C482.803986,354.230621 506.439209,370.842987 530.091980,387.430389 
	C543.406494,396.767731 556.779358,406.022888 570.012268,415.474213 
	C571.413147,416.474792 572.047180,418.549103 573.036987,420.125244 
	C570.578430,422.643188 568.119812,425.161072 565.015137,427.797028 
	C562.907104,427.149261 561.342346,426.530609 560.000183,425.593262 
	C552.515137,420.365906 545.100830,415.037354 537.631348,409.787567 
	C509.518768,390.029266 481.375244,370.314850 453.304749,350.497040 
	C450.633209,348.610962 448.389832,346.118408 445.947693,343.907410 
z"/>
<path fill="#0070D8" opacity="1.000000" stroke="none" 
	d="
M573.338074,419.971436 
	C572.047180,418.549103 571.413147,416.474792 570.012268,415.474213 
	C556.779358,406.022888 543.406494,396.767731 530.091980,387.430389 
	C506.439209,370.842987 482.803986,354.230621 459.136841,337.663788 
	C458.092407,336.932709 456.804169,336.549866 455.257080,335.985657 
	C458.367096,332.033234 461.849518,328.099976 465.806091,324.332397 
	C468.800507,326.634186 471.178986,328.970062 473.863525,330.874542 
	C493.775085,345.000427 513.652832,359.177399 533.730164,373.065125 
	C550.388855,384.588196 567.305176,395.738831 584.107361,407.054443 
	C582.479858,409.455261 581.003845,411.979401 579.179871,414.220306 
	C577.530457,416.246796 575.501038,417.964050 573.338074,419.971436 
z"/>
<path fill="#36B026" opacity="1.000000" stroke="none" 
	d="
M419.047974,367.878235 
	C422.282715,371.023529 425.517395,374.168823 428.757019,377.922363 
	C422.216370,387.950134 415.719971,397.404297 409.114777,406.781830 
	C395.709747,425.813202 382.191895,444.765289 368.827087,463.824799 
	C361.097534,474.847870 353.575623,486.016510 345.960266,497.119629 
	C342.716736,493.984222 339.473206,490.848816 336.255676,487.108856 
	C342.150208,478.069031 347.961945,469.593567 353.897827,461.205994 
	C372.385376,435.082428 390.954651,409.016602 409.405182,382.867004 
	C412.827087,378.017212 415.844116,372.881805 419.047974,367.878235 
z"/>
<path fill="#309D22" opacity="1.000000" stroke="none" 
	d="
M346.102203,497.416504 
	C353.575623,486.016510 361.097534,474.847870 368.827087,463.824799 
	C382.191895,444.765289 395.709747,425.813202 409.114777,406.781830 
	C415.719971,397.404297 422.216370,387.950134 428.914001,378.214111 
	C432.035583,381.020630 435.005096,384.143738 437.774841,387.828674 
	C436.676727,389.785065 435.830597,391.216553 434.872070,392.568420 
	C422.677979,409.766663 410.483490,426.964722 398.256866,444.139862 
	C388.053284,458.473206 377.743073,472.731171 367.609802,487.113922 
	C363.230011,493.330353 359.176788,499.776886 354.975220,506.118927 
	C352.064880,503.317047 349.154510,500.515198 346.102203,497.416504 
z"/>
<path fill="#41D52E" opacity="1.000000" stroke="none" 
	d="
M402.117126,350.949768 
	C404.999359,353.735596 407.881622,356.521393 410.743225,359.903534 
	C400.211273,375.225647 389.684998,389.940796 379.191895,404.679565 
	C361.770477,429.149963 344.370392,453.635529 326.961304,478.114685 
	C324.383087,475.652100 321.804810,473.189484 319.152283,470.066528 
	C320.837952,466.414612 322.397461,463.281921 324.389252,460.453644 
	C341.859344,435.646942 359.386139,410.880005 376.939941,386.132385 
	C385.283203,374.369965 393.721741,362.675171 402.117126,350.949768 
z"/>
<path fill="#3CC32A" opacity="1.000000" stroke="none" 
	d="
M327.095398,478.416290 
	C344.370392,453.635529 361.770477,429.149963 379.191895,404.679565 
	C389.684998,389.940796 400.211273,375.225647 410.889771,360.200684 
	C413.620270,362.365753 416.183624,364.829987 418.897461,367.586243 
	C415.844116,372.881805 412.827087,378.017212 409.405182,382.867004 
	C390.954651,409.016602 372.385376,435.082428 353.897827,461.205994 
	C347.961945,469.593567 342.150208,478.069031 336.117096,486.808441 
	C333.044800,484.314362 330.137146,481.516144 327.095398,478.416290 
z"/>
<path fill="#C43379" opacity="1.000000" stroke="none" 
	d="
M369.949219,520.884094 
	C372.402374,518.333923 374.855560,515.783813 377.923706,513.240601 
	C380.135223,514.137512 381.830292,514.888245 383.313660,515.938110 
	C414.776611,538.206299 446.247650,560.463379 477.632660,582.841003 
	C483.949066,587.344604 489.921539,592.330688 496.052551,597.094299 
	C493.253876,600.009521 490.455231,602.924744 487.289185,605.631348 
	C485.845276,604.220642 484.948029,602.766846 483.665802,601.853638 
	C459.838684,584.883240 435.950104,567.999268 412.108337,551.049377 
	C398.024872,541.037109 384.000275,530.942017 369.949219,520.884094 
z"/>
<path fill="#AB9D32" opacity="1.000000" stroke="none" 
	d="
M501.095825,552.393921 
	C509.566956,539.670837 518.147583,527.220154 526.809021,514.825989 
	C534.807617,503.380371 542.920044,492.014374 550.933289,480.578888 
	C561.606384,465.347778 572.231995,450.083435 582.948669,434.501770 
	C586.351135,436.861786 589.682983,439.553467 592.759827,442.759399 
	C591.281006,444.610260 589.920105,445.846405 588.854736,447.299255 
	C579.655090,459.844391 570.409363,472.357727 561.371887,485.019318 
	C550.478760,500.280609 539.742798,515.654663 529.002563,531.024414 
	C522.258362,540.675720 515.631104,550.408691 508.951355,560.104980 
	C506.381073,557.633667 503.810791,555.162354 501.095825,552.393921 
z"/>
<path fill="#A62B67" opacity="1.000000" stroke="none" 
	d="
M393.663940,497.062012 
	C399.960876,501.591888 405.793854,506.506104 411.989441,510.910095 
	C430.284668,523.914856 448.695435,536.757812 467.115082,549.586426 
	C480.748444,559.081604 494.466339,568.455383 508.484253,577.947815 
	C509.343292,582.922180 506.754700,586.472778 503.293640,589.611206 
	C501.627899,587.953735 500.554749,586.186096 499.008667,585.078918 
	C490.906281,579.276428 482.657410,573.679138 474.509247,567.939880 
	C458.605621,556.737793 442.707611,545.527405 426.859283,534.247437 
	C413.186707,524.516052 399.586334,514.683167 385.954041,504.895142 
	C388.424591,502.334503 390.895142,499.773865 393.663940,497.062012 
z"/>
<path fill="#B22F6E" opacity="1.000000" stroke="none" 
	d="
M385.654846,505.046051 
	C399.586334,514.683167 413.186707,524.516052 426.859283,534.247437 
	C442.707611,545.527405 458.605621,556.737793 474.509247,567.939880 
	C482.657410,573.679138 490.906281,579.276428 499.008667,585.078918 
	C500.554749,586.186096 501.627899,587.953735 502.981201,589.765503 
	C500.916138,592.350891 498.789062,594.587524 496.357300,596.959229 
	C489.921539,592.330688 483.949066,587.344604 477.632660,582.841003 
	C446.247650,560.463379 414.776611,538.206299 383.313660,515.938110 
	C381.830292,514.888245 380.135223,514.137512 378.220886,513.095337 
	C380.387238,510.361145 382.871429,507.779053 385.654846,505.046051 
z"/>
<path fill="#0078E9" opacity="1.000000" stroke="none" 
	d="
M584.453491,407.017822 
	C567.305176,395.738831 550.388855,384.588196 533.730164,373.065125 
	C513.652832,359.177399 493.775085,345.000427 473.863525,330.874542 
	C471.178986,328.970062 468.800507,326.634186 466.114929,324.198181 
	C467.729248,322.003479 469.508911,320.108704 471.947571,318.146667 
	C478.943604,322.310425 485.363434,326.423187 491.602264,330.794250 
	C511.741028,344.903992 531.781433,359.154114 551.922241,373.260895 
	C565.254150,382.598663 578.693298,391.783417 592.084412,401.036682 
	C589.656189,403.018188 587.227905,404.999695 584.453491,407.017822 
z"/>
<path fill="#005BB1" opacity="1.000000" stroke="none" 
	d="
M445.645447,344.050842 
	C448.389832,346.118408 450.633209,348.610962 453.304749,350.497040 
	C481.375244,370.314850 509.518768,390.029266 537.631348,409.787567 
	C545.100830,415.037354 552.515137,420.365906 560.000183,425.593262 
	C561.342346,426.530609 562.907104,427.149261 564.725342,427.976410 
	C562.945312,430.263733 560.808899,432.489716 558.001221,434.852966 
	C555.702698,434.215637 553.933960,433.645630 552.470947,432.633667 
	C542.217041,425.541199 532.008179,418.383118 521.818726,411.198090 
	C493.837250,391.467224 465.872406,371.712769 437.901001,351.967651 
	C440.381744,349.376526 442.862488,346.785400 445.645447,344.050842 
z"/>
<path fill="#0053A2" opacity="1.000000" stroke="none" 
	d="
M437.608643,352.157104 
	C465.872406,371.712769 493.837250,391.467224 521.818726,411.198090 
	C532.008179,418.383118 542.217041,425.541199 552.470947,432.633667 
	C553.933960,433.645630 555.702698,434.215637 557.701294,435.011108 
	C555.614502,437.602264 553.156311,440.172485 550.402466,442.896301 
	C524.254639,424.712219 498.408142,406.366364 472.547455,388.040558 
	C461.443939,380.172211 450.321716,372.330078 439.176880,364.520386 
	C437.832336,363.578186 436.292755,362.914307 434.505005,362.057434 
	C435.216400,358.777832 436.266357,355.562195 437.608643,352.157104 
z"/>
<path fill="#B8A836" opacity="1.000000" stroke="none" 
	d="
M509.088623,560.400391 
	C515.631104,550.408691 522.258362,540.675720 529.002563,531.024414 
	C539.742798,515.654663 550.478760,500.280609 561.371887,485.019318 
	C570.409363,472.357727 579.655090,459.844391 588.854736,447.299255 
	C589.920105,445.846405 591.281006,444.610260 592.806641,443.107697 
	C595.352905,444.737610 597.597351,446.533478 599.677368,448.800293 
	C598.109985,450.680939 596.468140,451.922241 595.339539,453.524994 
	C571.033691,488.041229 546.809570,522.615112 522.484863,557.118042 
	C520.243286,560.297668 517.431274,563.075073 514.884094,566.039246 
	C512.998047,564.258118 511.111969,562.476929 509.088623,560.400391 
z"/>
<path fill="#D93987" opacity="1.000000" stroke="none" 
	d="
M482.049683,611.116821 
	C479.919708,613.361145 477.789764,615.605469 475.291016,617.634277 
	C473.419708,615.697021 472.175140,613.622070 470.375031,612.307922 
	C450.958984,598.132568 431.537415,583.961853 411.951416,570.023010 
	C394.375000,557.514282 376.591522,545.296631 358.899353,532.950562 
	C360.696716,530.708252 362.494080,528.465942 364.895203,526.249207 
	C379.624756,536.159180 393.786469,545.992615 407.868164,555.939392 
	C431.438538,572.588684 454.981781,589.277039 478.445709,606.075684 
	C480.035278,607.213684 480.865997,609.411743 482.049683,611.116821 
z"/>
<path fill="#EA3D91" opacity="1.000000" stroke="none" 
	d="
M358.557373,532.985229 
	C376.591522,545.296631 394.375000,557.514282 411.951416,570.023010 
	C431.537415,583.961853 450.958984,598.132568 470.375031,612.307922 
	C472.175140,613.622070 473.419708,615.697021 474.983582,617.766968 
	C473.596741,619.677795 472.148590,621.240356 470.099304,622.760498 
	C467.205750,621.070801 464.928497,619.402100 462.618561,617.779785 
	C431.219086,595.727051 399.787628,573.719727 368.437439,551.597107 
	C362.774902,547.601257 357.441772,543.138672 351.956543,538.891541 
	C354.042816,536.934326 356.129089,534.977112 358.557373,532.985229 
z"/>
<path fill="#F4E048" opacity="1.000000" stroke="none" 
	d="
M629.986084,478.642914 
	C624.307312,486.798920 618.357178,494.542572 612.727600,502.512665 
	C591.260315,532.904785 569.898376,563.371338 548.484985,593.801575 
	C547.817200,594.750549 547.016846,595.606201 546.112915,596.806396 
	C544.032288,595.307861 542.117004,593.508362 540.241699,591.102600 
	C564.625183,555.830505 588.936279,521.141785 613.350098,486.525543 
	C616.672119,481.815308 620.507690,477.467255 624.105469,472.951508 
	C626.024292,474.745850 627.943054,476.540192 629.986084,478.642914 
z"/>
<path fill="#007EF4" opacity="1.000000" stroke="none" 
	d="
M592.376587,400.918091 
	C578.693298,391.783417 565.254150,382.598663 551.922241,373.260895 
	C531.781433,359.154114 511.741028,344.903992 491.602264,330.794250 
	C485.363434,326.423187 478.943604,322.310425 472.248657,318.021118 
	C473.683624,316.046021 475.476593,314.129181 477.571533,312.088287 
	C481.490631,314.255432 485.206451,316.405762 488.709290,318.860077 
	C516.563232,338.376312 544.383606,357.940460 572.197937,377.513123 
	C579.387390,382.572266 586.557190,387.661774 593.636475,392.872589 
	C594.702148,393.656952 595.221313,395.183990 596.012817,396.739716 
	C594.911255,398.341125 593.790039,399.570343 592.376587,400.918091 
z"/>
<path fill="#D5C33F" opacity="1.000000" stroke="none" 
	d="
M529.953186,581.110718 
	C528.038696,579.307800 526.124146,577.504944 524.229248,575.084839 
	C534.196045,560.132996 544.090881,545.761658 554.103027,531.472412 
	C568.110718,511.480591 582.138367,491.501831 596.309998,471.626251 
	C599.947205,466.525085 604.156738,461.832062 608.103394,456.951538 
	C609.671814,458.399078 611.240234,459.846619 612.780396,461.910095 
	C606.526123,471.308838 600.278687,480.076508 594.078430,488.877411 
	C579.475037,509.605682 564.840576,530.312378 550.327576,551.103821 
	C543.408081,561.016724 536.736877,571.103027 529.953186,581.110718 
z"/>
<path fill="#F24096" opacity="1.000000" stroke="none" 
	d="
M351.653076,539.026001 
	C357.441772,543.138672 362.774902,547.601257 368.437439,551.597107 
	C399.787628,573.719727 431.219086,595.727051 462.618561,617.779785 
	C464.928497,619.402100 467.205750,621.070801 469.800720,622.881470 
	C467.957428,625.313843 465.811584,627.582764 463.356598,629.981934 
	C461.279114,628.024963 459.852875,625.454834 457.690948,623.922974 
	C427.393677,602.455994 396.992676,581.135376 366.625366,559.767212 
	C359.862274,555.008301 353.131622,550.203308 346.170685,545.153992 
	C347.753418,542.979187 349.551514,541.069885 351.653076,539.026001 
z"/>
<path fill="#45E131" opacity="1.000000" stroke="none" 
	d="
M401.975586,350.655151 
	C393.721741,362.675171 385.283203,374.369965 376.939941,386.132385 
	C359.386139,410.880005 341.859344,435.646942 324.389252,460.453644 
	C322.397461,463.281921 320.837952,466.414612 319.018005,469.765442 
	C317.044952,468.321899 315.131866,466.519043 313.089844,464.416077 
	C326.011292,445.679504 339.088257,427.261749 352.104736,408.801392 
	C365.404572,389.939240 378.635071,371.028198 391.925934,352.159698 
	C393.353455,350.133148 394.980957,348.247437 396.813293,346.126892 
	C398.685303,347.425079 400.259674,348.892792 401.975586,350.655151 
z"/>
<path fill="#2C901F" opacity="1.000000" stroke="none" 
	d="
M355.183960,506.408936 
	C359.176788,499.776886 363.230011,493.330353 367.609802,487.113922 
	C377.743073,472.731171 388.053284,458.473206 398.256866,444.139862 
	C410.483490,426.964722 422.677979,409.766663 434.872070,392.568420 
	C435.830597,391.216553 436.676727,389.785065 437.837982,388.170471 
	C439.992920,389.422302 441.884979,390.894226 443.937195,392.659088 
	C438.741241,400.121643 433.232178,407.182770 428.055969,414.480011 
	C407.853241,442.960999 387.723541,471.493988 367.678864,500.086304 
	C366.022186,502.449371 365.207458,505.402710 363.996033,508.457581 
	C361.124573,508.121887 358.258606,507.410431 355.183960,506.408936 
z"/>
<path fill="#DECC41" opacity="1.000000" stroke="none" 
	d="
M530.079773,581.409363 
	C536.736877,571.103027 543.408081,561.016724 550.327576,551.103821 
	C564.840576,530.312378 579.475037,509.605682 594.078430,488.877411 
	C600.278687,480.076508 606.526123,471.308838 612.898682,462.210114 
	C614.981567,463.707245 616.917847,465.520325 618.680176,467.806030 
	C613.257263,475.320709 607.876709,482.269165 602.783691,489.422333 
	C586.981384,511.616638 571.247620,533.860229 555.571228,556.143738 
	C548.594849,566.060425 541.819275,576.118408 534.952515,586.112305 
	C533.370483,584.644226 531.788452,583.176086 530.079773,581.409363 
z"/>
<path fill="#E9D644" opacity="1.000000" stroke="none" 
	d="
M535.077759,586.411438 
	C541.819275,576.118408 548.594849,566.060425 555.571228,556.143738 
	C571.247620,533.860229 586.981384,511.616638 602.783691,489.422333 
	C607.876709,482.269165 613.257263,475.320709 618.808105,468.113831 
	C620.694275,469.413574 622.278564,470.878052 623.984192,472.647034 
	C620.507690,477.467255 616.672119,481.815308 613.350098,486.525543 
	C588.936279,521.141785 564.625183,555.830505 540.115723,590.799072 
	C538.367554,589.638000 536.785278,588.174255 535.077759,586.411438 
z"/>
<path fill="#CD367F" opacity="1.000000" stroke="none" 
	d="
M482.348663,610.984375 
	C480.865997,609.411743 480.035278,607.213684 478.445709,606.075684 
	C454.981781,589.277039 431.438538,572.588684 407.868164,555.939392 
	C393.786469,545.992615 379.624756,536.159180 365.196716,526.109375 
	C366.381195,524.351196 367.867889,522.758362 369.651917,521.024841 
	C384.000275,530.942017 398.024872,541.037109 412.108337,551.049377 
	C435.950104,567.999268 459.838684,584.883240 483.665802,601.853638 
	C484.948029,602.766846 485.845276,604.220642 486.983124,605.772644 
	C485.578888,607.698975 484.113281,609.275391 482.348663,610.984375 
z"/>
<path fill="#CBBA3B" opacity="1.000000" stroke="none" 
	d="
M607.982300,456.654907 
	C604.156738,461.832062 599.947205,466.525085 596.309998,471.626251 
	C582.138367,491.501831 568.110718,511.480591 554.103027,531.472412 
	C544.090881,545.761658 534.196045,560.132996 524.099121,574.783325 
	C522.700378,573.965759 521.451477,572.832520 520.140991,571.055908 
	C524.369751,564.303406 528.657349,558.192322 532.951050,552.085571 
	C541.368713,540.113525 549.815918,528.162170 558.202881,516.168701 
	C568.582458,501.325745 578.790771,486.361145 589.321472,471.626648 
	C593.933105,465.174103 599.160217,459.161407 604.107849,452.948975 
	C605.358948,454.085419 606.610046,455.221832 607.982300,456.654907 
z"/>
<path fill="#C2B239" opacity="1.000000" stroke="none" 
	d="
M603.984253,452.653625 
	C599.160217,459.161407 593.933105,465.174103 589.321472,471.626648 
	C578.790771,486.361145 568.582458,501.325745 558.202881,516.168701 
	C549.815918,528.162170 541.368713,540.113525 532.951050,552.085571 
	C528.657349,558.192322 524.369751,564.303406 520.016357,570.763000 
	C518.354980,569.622192 516.756714,568.130920 515.021301,566.339478 
	C517.431274,563.075073 520.243286,560.297668 522.484863,557.118042 
	C546.809570,522.615112 571.033691,488.041229 595.339539,453.524994 
	C596.468140,451.922241 598.109985,450.680939 599.814880,449.107666 
	C601.364868,450.082153 602.612732,451.220215 603.984253,452.653625 
z"/>
</svg>